/* XPM */
static char * chest_xpm[] = {
"48 48 7 1",
" 	c #514047",
".	c #000000",
"+	c #704844",
"@	c #A4A4A4",
"#	c #63413D",
"$	c #898989",
"%	c #4D3533",
"            ........................            ",
"            ........................            ",
"            ........................            ",
"      ......++++++++++++++++++++++++......      ",
"      ......++++++++++++++++++++++++......      ",
"      ......++++++++++++++++++++++++......      ",
"   ...@@@###++++++++++++++++++++++++###$$$...   ",
"   ...@@@###++++++++++++++++++++++++###$$$...   ",
"   ...@@@###++++++++++++++++++++++++###$$$...   ",
"...@@@@@@###++++++++++++++++++++++++###$$$$$$...",
"...@@@@@@###++++++++++++++++++++++++###$$$$$$...",
"...@@@@@@###++++++++++++++++++++++++###$$$$$$...",
"...@@@@@@###++++++++++++++++++++++++###$$$$$$...",
"...@@@@@@###++++++++++++++++++++++++###$$$$$$...",
"...@@@@@@###++++++++++++++++++++++++###$$$$$$...",
"...$$$$$$###++++++++++++++++++++++++###@@@@@@...",
"...$$$$$$###++++++++++++++++++++++++###@@@@@@...",
"...$$$$$$###++++++++++++++++++++++++###@@@@@@...",
"...$$$$$$###++++++++++++++++++++++++###@@@@@@...",
"...$$$$$$###++++++++++++++++++++++++###@@@@@@...",
"...$$$$$$###++++++++++++++++++++++++###@@@@@@...",
"...$$$$$$######++++++++++++++++++######@@@@@@...",
"...$$$$$$######++++++++++++++++++######@@@@@@...",
"...$$$$$$######++++++++++++++++++######@@@@@@...",
"...@@@@@@############@@@@@@############@@@@@@...",
"...@@@@@@############@@@@@@############@@@@@@...",
"...@@@@@@############@@@@@@############@@@@@@...",
"...$$$$$$$$$$$$$$$@@@@@@@@@@@@$$$$$$$$$$$$$$$...",
"...$$$$$$$$$$$$$$$@@@@@@@@@@@@$$$$$$$$$$$$$$$...",
"...$$$$$$$$$$$$$$$@@@@@@@@@@@@$$$$$$$$$$$$$$$...",
"...$$$$$$%%%%%%+++@@@......@@@+++%%%%%%$$$$$$...",
"...$$$$$$%%%%%%+++@@@......@@@+++%%%%%%$$$$$$...",
"...$$$$$$%%%%%%+++@@@......@@@+++%%%%%%$$$$$$...",
"...$$$$$$%%%+++++++++@@@@@@+++++++++%%%$$$$$$...",
"...$$$$$$%%%+++++++++@@@@@@+++++++++%%%$$$$$$...",
"...$$$$$$%%%+++++++++@@@@@@+++++++++%%%$$$$$$...",
"...$$$$$$%%%++++++++++++++++++++++++%%%$$$$$$...",
"...$$$$$$%%%++++++++++++++++++++++++%%%$$$$$$...",
"...$$$$$$%%%++++++++++++++++++++++++%%%$$$$$$...",
"...$$$$$$%%%++++++++++++++++++++++++%%%$$$$$$...",
"...$$$$$$%%%++++++++++++++++++++++++%%%$$$$$$...",
"...$$$$$$%%%++++++++++++++++++++++++%%%$$$$$$...",
"...$$$$$$%%%%%%++++++++++++++++++%%%%%%$$$$$$...",
"...$$$$$$%%%%%%++++++++++++++++++%%%%%%$$$$$$...",
"...$$$$$$%%%%%%++++++++++++++++++%%%%%%$$$$$$...",
"   ..........................................   ",
"   ..........................................   ",
"   ..........................................   "};
