/* XPM */
static char * knight3_xpm[] = {
"48 48 10 1",
" 	c #514047",
".	c #060608",
"+	c #AC3232",
"@	c #4C3941",
"#	c #847E87",
"$	c #9BADB7",
"%	c #FFFFFF",
"&	c #DF7126",
"*	c #040406",
"=	c #565258",
"                                                ",
"                                                ",
"                                                ",
"               .........                        ",
"               .........                        ",
"               .........                        ",
"               ...++++++...         @@@         ",
"               ...++++++...         @@@         ",
"               ...++++++...         @@@         ",
"               @@@...###............            ",
"               @@@...###............            ",
"               @@@...###............            ",
"               ...######$$$$$$$$$$$$...         ",
"               ...######$$$$$$$$$$$$...         ",
"               ...######$$$$$$$$$$$$...         ",
"            ...###$$$$$$$$$$$$$$$$$$...         ",
"            ...###$$$$$$$$$$$$$$$$$$...         ",
"            ...###$$$$$$$$$$$$$$$$$$...         ",
"            ...$$$$$$%%%%%%%%%%%%%%%...         ",
"            ...$$$$$$%%%%%%%%%%%%%%%...         ",
"            ...$$$$$$%%%%%%%%%%%%%%%...         ",
"            ...$$$$$$%%%...............         ",
"            ...$$$$$$%%%...............         ",
"            ...$$$$$$%%%...............         ",
"            ...###$$$%%%%%%%%%...%%%...         ",
"            ...###$$$%%%%%%%%%...%%%...         ",
"            ...###$$$%%%%%%%%%...%%%...         ",
"               ...######++++++&&&+++...         ",
"               ...######++++++&&&+++...         ",
"               ...######++++++&&&+++...         ",
"            +++...++++++############...         ",
"            +++...++++++############...         ",
"            +++...++++++############...         ",
"      +++++++++...######$$$$$$$$$$$$...         ",
"      +++++++++...######$$$$$$$$$$$$...         ",
"      +++++++++...######$$$$$$$$$$$$...         ",
"         +++++++++...............###***         ",
"         +++++++++...............###***         ",
"         +++++++++...............###***         ",
"                           ***===***            ",
"                           ***===***            ",
"                           ***===***            ",
"                           ******               ",
"                           ******               ",
"                           ******               ",
"                                                ",
"                                                ",
"                                                "};
