/* XPM */
static char * slime_xpm[] = {
"48 48 7 1",
" 	c #514047",
".	c #4C3941",
"+	c #000000",
"@	c #33703B",
"#	c #3E8948",
"$	c #62B76D",
"%	c #37773F",
"                                                ",
"                                                ",
"                                                ",
"                                                ",
"                                                ",
"                                                ",
"                                    ...         ",
"                                    ...         ",
"                                    ...         ",
"               ++++++++++++++++++               ",
"               ++++++++++++++++++               ",
"               ++++++++++++++++++               ",
"         ++++++@@@############@@@++++++         ",
"         ++++++@@@############@@@++++++         ",
"         ++++++@@@############@@@++++++         ",
"      +++@@@@@@##################@@@@@@+++      ",
"      +++@@@@@@##################@@@@@@+++      ",
"      +++@@@@@@##################@@@@@@+++      ",
"   +++@@@##############################@@@+++   ",
"   +++@@@##############################@@@+++   ",
"   +++@@@##############################@@@+++   ",
"+++@@@######$$$$$$########################@@@+++",
"+++@@@######$$$$$$########################@@@+++",
"+++@@@######$$$$$$########################@@@+++",
"+++######$$$$$$##############################+++",
"+++######$$$$$$##############################+++",
"+++######$$$$$$##############################+++",
"+++#########%%%%%%%%%%%%%%%%%%%%%++++++######+++",
"+++#########%%%%%%%%%%%%%%%%%%%%%++++++######+++",
"+++#########%%%%%%%%%%%%%%%%%%%%%++++++######+++",
"+++###%%%%%%%%%%%%++++++%%%%%%%%%++++++%%%###+++",
"+++###%%%%%%%%%%%%++++++%%%%%%%%%++++++%%%###+++",
"+++###%%%%%%%%%%%%++++++%%%%%%%%%++++++%%%###+++",
"+++@@@%%%%%%%%%%%%++++++%%%%%%%%%%%%%%%%%%@@@+++",
"+++@@@%%%%%%%%%%%%++++++%%%%%%%%%%%%%%%%%%@@@+++",
"+++@@@%%%%%%%%%%%%++++++%%%%%%%%%%%%%%%%%%@@@+++",
"   +++@@@@@@%%%%%%%%%%%%%%%%%%%%%%%%@@@@@@+++   ",
"   +++@@@@@@%%%%%%%%%%%%%%%%%%%%%%%%@@@@@@+++   ",
"   +++@@@@@@%%%%%%%%%%%%%%%%%%%%%%%%@@@@@@+++   ",
"      ++++++@@@%%%%%%%%%%%%%%%%%%@@@++++++      ",
"      ++++++@@@%%%%%%%%%%%%%%%%%%@@@++++++      ",
"      ++++++@@@%%%%%%%%%%%%%%%%%%@@@++++++      ",
"            ++++++++++++++++++++++++            ",
"            ++++++++++++++++++++++++            ",
"            ++++++++++++++++++++++++            ",
"                                                ",
"                                                ",
"                                                "};
