/* XPM */
static char * wall_1_xpm[] = {
"48 48 4 1",
" 	c #434F65",
".	c #353E50",
"+	c #6F7F9F",
"@	c #5A6988",
"   .....................   .....................",
"   .....................   .....................",
"   .....................   .....................",
"   +++++++++++++++++++++   +++++++++++++++++++++",
"   +++++++++++++++++++++   +++++++++++++++++++++",
"   +++++++++++++++++++++   +++++++++++++++++++++",
"   +++@@@@@@@@@@@@@@@+++   +++@@@@@@@@@@@@@@@+++",
"   +++@@@@@@@@@@@@@@@+++   +++@@@@@@@@@@@@@@@+++",
"   +++@@@@@@@@@@@@@@@+++   +++@@@@@@@@@@@@@@@+++",
"............   .....................   .........",
"............   .....................   .........",
"............   .....................   .........",
"++++++++++++   +++++++++++++++++++++   +++++++++",
"++++++++++++   +++++++++++++++++++++   +++++++++",
"++++++++++++   +++++++++++++++++++++   +++++++++",
"@@@@@@@@@+++   +++@@@@@@@@@@@@@@@+++   +++@@@@@@",
"@@@@@@@@@+++   +++@@@@@@@@@@@@@@@+++   +++@@@@@@",
"@@@@@@@@@+++   +++@@@@@@@@@@@@@@@+++   +++@@@@@@",
"@@@@@@@@@@@@      @@@@@@@@@@@@@@@@@@   @@@@@@@@@",
"@@@@@@@@@@@@      @@@@@@@@@@@@@@@@@@   @@@@@@@@@",
"@@@@@@@@@@@@      @@@@@@@@@@@@@@@@@@   @@@@@@@@@",
"   .....................   .....................",
"   .....................   .....................",
"   .....................   .....................",
"   +++++++++++++++++++++   +++++++++++++++++++++",
"   +++++++++++++++++++++   +++++++++++++++++++++",
"   +++++++++++++++++++++   +++++++++++++++++++++",
"   +++@@@@@@@@@@@@@@@+++   +++@@@@@@@@@@@@@@@+++",
"   +++@@@@@@@@@@@@@@@+++   +++@@@@@@@@@@@@@@@+++",
"   +++@@@@@@@@@@@@@@@+++   +++@@@@@@@@@@@@@@@+++",
"   @@@@@@   @@@@@@@@@@@@   @@@@@@@@@@@@@@@@@@@@@",
"   @@@@@@   @@@@@@@@@@@@   @@@@@@@@@@@@@@@@@@@@@",
"   @@@@@@   @@@@@@@@@@@@   @@@@@@@@@@@@@@@@@@@@@",
"............   .....................   .........",
"............   .....................   .........",
"............   .....................   .........",
"++++++++++++   +++++++++++++++++++++   +++++++++",
"++++++++++++   +++++++++++++++++++++   +++++++++",
"++++++++++++   +++++++++++++++++++++   +++++++++",
"@@@@@@@@@+++   +++@@@@@@@@@@@@@@@+++   +++@@@@@@",
"@@@@@@@@@+++   +++@@@@@@@@@@@@@@@+++   +++@@@@@@",
"@@@@@@@@@+++   +++@@@@@@@@@@@@@@@+++   +++@@@@@@",
"@@@@@@@@@@@@   @@@@@@@@@@@@@@@@@@@@@   @@@@@@@@@",
"@@@@@@@@@@@@   @@@@@@@@@@@@@@@@@@@@@   @@@@@@@@@",
"@@@@@@@@@@@@   @@@@@@@@@@@@@@@@@@@@@   @@@@@@@@@",
"                                                ",
"                                                ",
"                                                "};
